<svg xmlns="http://www.w3.org/2000/svg" width="100%" height="100%" viewBox="0 0 200 350" preserveAspectRatio="xMidYMid meet">
    <rect fill="darkblue" height="350" rx="20" ry="20" stroke="gold" stroke-width="4" width="200" x="0" y="0" />
    <circle cx="100" cy="175" fill="gold" r="10" />
    <line stroke="gold" stroke-width="2" x1="110.0" x2="150.0" y1="175.0" y2="175.0" />
    <line stroke="gold" stroke-width="2" x1="108.6603" x2="143.3013" y1="180.0" y2="200.0" />
    <line stroke="gold" stroke-width="2" x1="105.0" x2="125.0" y1="183.6603" y2="218.3013" />
    <line stroke="gold" stroke-width="2" x1="100.0" x2="100.0" y1="185.0" y2="225.0" />
    <line stroke="gold" stroke-width="2" x1="95.0" x2="75.0" y1="183.6603" y2="218.3013" />
    <line stroke="gold" stroke-width="2" x1="91.3397" x2="56.6987" y1="180.0" y2="200.0" />
    <line stroke="gold" stroke-width="2" x1="90.0" x2="50.0" y1="175.0" y2="175.0" />
    <line stroke="gold" stroke-width="2" x1="91.3397" x2="56.6987" y1="170.0" y2="150.0" />
    <line stroke="gold" stroke-width="2" x1="95.0" x2="75.0" y1="166.3397" y2="131.6987" />
    <line stroke="gold" stroke-width="2" x1="100.0" x2="100.0" y1="165.0" y2="125.0" />
    <line stroke="gold" stroke-width="2" x1="105.0" x2="125.0" y1="166.3397" y2="131.6987" />
    <line stroke="gold" stroke-width="2" x1="108.6603" x2="143.3013" y1="170.0" y2="150.0" />
    <circle cx="100" cy="175" fill="none" r="60" stroke="gold" stroke-width="2" />
    <circle cx="100" cy="175" fill="none" r="90" stroke="gold" stroke-width="2" />
    <polygon fill="none" points="100,75 50,225 150,225" stroke="gold" stroke-width="2" />
    <polygon fill="none" points="100,275 50,125 150,125" stroke="gold" stroke-width="2" />
</svg>
